<svg
  enable-background="new 0 0 24 24"
  viewBox="0 0 24 24"
  xmlns="http://www.w3.org/2000/svg"
>
  <g clip-rule="evenodd" fill-rule="evenodd">
    <path
      d="m12.828 9.153-2.748-2.422c-.34-.3-.85-.3-1.19 0l-5.586 4.922c-.193.172-.304.417-.304.676v6.871c0 .994.806 1.8 1.8 1.8h14.4c.994 0 1.8-.806 1.8-1.8v-14.207c0-.497-.403-.9-.9-.9-.219 0-.431.08-.595.225l-5.486 4.835c-.341.3-.851.3-1.191 0"
      fill="#ff607e"
      opacity=".5"
    ></path>
    <path
      d="m19.505 4.317-5.487 4.836c-.34.299-.849.299-1.189 0l-2.748-2.423c-.34-.3-.85-.3-1.19 0l-5.586 4.922c-.194.172-.305.418-.305.676v2.349l5.89-5.192c.34-.3.85-.3 1.19 0l2.748 2.421c.34.299.849.299 1.189 0l6.983-6.153v-.762c0-.773-.914-1.186-1.495-.674"
      fill="#ff274a"
    ></path>
  </g>
</svg>
